<svg xmlns="http://www.w3.org/2000/svg" viewBox="0 0 35 43" width="140" height="172" shape-rendering="crispEdges"><title>Nico</title><path fill="#000B14" d="M18 1h3v1h-3zM27 1h3v1h-3zM17 2h1v1h-1zM21 2h6v1h-6zM30 2h2v1h-2zM16 3h1v1h-1zM32 3h1v1h-1zM15 4h1v1h-1zM33 4h1v1h-1zM14 5h1v1h-1zM27 5h1v1h-1zM33 5h1v1h-1zM15 6h1v1h-1zM25 6h1v1h-1zM27 6h2v1h-2zM31 6h2v1h-2zM16 7h2v1h-2zM32 7h1v1h-1zM18 8h1v1h-1zM32 8h1v1h-1zM18 9h1v1h-1zM32 9h1v1h-1zM18 10h1v1h-1zM32 10h1v1h-1zM18 11h1v1h-1zM32 11h1v1h-1zM17 12h1v1h-1zM28 12h1v1h-1zM32 12h1v1h-1zM16 13h1v1h-1zM19 13h1v1h-1zM31 13h1v1h-1zM16 14h1v1h-1zM20 14h1v1h-1zM31 14h1v1h-1zM16 15h1v1h-1zM20 15h2v1h-2zM31 15h1v1h-1zM15 16h1v1h-1zM20 16h1v1h-1zM22 16h2v1h-2zM30 16h1v1h-1zM15 17h1v1h-1zM21 17h2v1h-2zM24 17h2v1h-2zM29 17h1v1h-1zM14 18h1v1h-1zM21 18h1v1h-1zM23 18h2v1h-2zM26 18h2v1h-2zM29 18h1v1h-1zM14 19h1v1h-1zM21 19h1v1h-1zM25 19h1v1h-1zM27 19h1v1h-1zM29 19h1v1h-1zM13 20h1v1h-1zM26 20h1v1h-1zM30 20h1v1h-1zM12 21h1v1h-1zM30 21h1v1h-1zM12 22h1v1h-1zM26 22h2v1h-2zM30 22h1v1h-1zM11 23h1v1h-1zM30 23h1v1h-1zM11 24h1v1h-1zM29 24h1v1h-1zM10 25h1v1h-1zM14 25h1v1h-1zM16 25h1v1h-1zM20 25h1v1h-1zM26 25h1v1h-1zM30 25h1v1h-1zM9 26h1v1h-1zM14 26h1v1h-1zM20 26h2v1h-2zM24 26h3v1h-3zM28 26h1v1h-1zM30 26h1v1h-1zM9 27h1v1h-1zM12 27h3v1h-3zM26 27h2v1h-2zM29 27h1v1h-1zM8 28h1v1h-1zM13 28h2v1h-2zM19 28h3v1h-3zM23 28h1v1h-1zM25 28h3v1h-3zM29 28h1v1h-1zM7 29h1v1h-1zM13 29h2v1h-2zM19 29h1v1h-1zM22 29h2v1h-2zM29 29h1v1h-1zM7 30h1v1h-1zM13 30h2v1h-2zM19 30h1v1h-1zM22 30h1v1h-1zM24 30h1v1h-1zM29 30h1v1h-1zM2 31h1v1h-1zM6 31h1v1h-1zM13 31h1v1h-1zM15 31h1v1h-1zM19 31h4v1h-4zM24 31h1v1h-1zM29 31h1v1h-1zM1 32h1v1h-1zM3 32h1v1h-1zM6 32h1v1h-1zM14 32h2v1h-2zM19 32h1v1h-1zM23 32h1v1h-1zM25 32h1v1h-1zM29 32h1v1h-1zM1 33h1v1h-1zM3 33h1v1h-1zM5 33h2v1h-2zM12 33h1v1h-1zM15 33h1v1h-1zM21 33h2v1h-2zM24 33h1v1h-1zM26 33h1v1h-1zM29 33h1v1h-1zM1 34h1v1h-1zM4 34h1v1h-1zM7 34h1v1h-1zM11 34h2v1h-2zM19 34h2v1h-2zM23 34h1v1h-1zM25 34h1v1h-1zM29 34h1v1h-1zM2 35h2v1h-2zM6 35h2v1h-2zM10 35h1v1h-1zM13 35h1v1h-1zM19 35h1v1h-1zM21 35h2v1h-2zM24 35h2v1h-2zM29 35h1v1h-1zM4 36h2v1h-2zM9 36h3v1h-3zM14 36h1v1h-1zM19 36h1v1h-1zM21 36h1v1h-1zM25 36h1v1h-1zM30 36h1v1h-1zM6 37h1v1h-1zM12 37h2v1h-2zM15 37h1v1h-1zM20 37h1v1h-1zM24 37h1v1h-1zM26 37h1v1h-1zM31 37h1v1h-1zM7 38h1v1h-1zM12 38h1v1h-1zM14 38h2v1h-2zM20 38h4v1h-4zM27 38h1v1h-1zM32 38h1v1h-1zM8 39h4v1h-4zM15 39h1v1h-1zM20 39h1v1h-1zM28 39h4v1h-4zM16 40h1v1h-1zM20 40h1v1h-1zM17 41h3v1h-3z"/><path fill="#576974" d="M18 2h1v1h-1zM29 2h1v1h-1zM31 3h1v1h-1zM28 4h1v1h-1zM24 14h1v1h-1zM6 36h1v1h-1zM24 36h1v1h-1zM26 36h1v1h-1z"/><path fill="#00111D" d="M19 2h2v1h-2zM28 2h1v1h-1zM19 3h2v1h-2zM22 3h4v1h-4zM28 3h2v1h-2zM18 4h3v1h-3zM25 4h1v1h-1zM30 4h2v1h-2zM19 5h1v1h-1zM24 5h1v1h-1zM26 5h1v1h-1zM30 5h1v1h-1zM32 5h1v1h-1zM17 6h1v1h-1zM24 6h1v1h-1zM26 6h1v1h-1zM29 6h2v1h-2zM25 7h1v1h-1zM31 7h1v1h-1zM31 8h1v1h-1zM21 9h1v1h-1zM23 9h1v1h-1zM31 9h1v1h-1zM28 10h2v1h-2zM31 10h1v1h-1zM20 11h1v1h-1zM28 11h1v1h-1zM31 11h1v1h-1zM18 12h1v1h-1zM20 12h3v1h-3zM26 12h2v1h-2zM20 13h1v1h-1zM23 13h1v1h-1zM25 13h1v1h-1zM21 14h1v1h-1zM30 14h1v1h-1zM19 15h1v1h-1zM22 15h1v1h-1zM16 16h1v1h-1zM18 16h2v1h-2zM24 16h1v1h-1zM16 17h1v1h-1zM20 17h1v1h-1zM27 17h2v1h-2zM15 18h2v1h-2zM20 18h1v1h-1zM22 18h1v1h-1zM28 18h1v1h-1zM20 19h1v1h-1zM22 19h3v1h-3zM26 19h1v1h-1zM28 19h1v1h-1zM14 20h1v1h-1zM21 20h1v1h-1zM24 20h2v1h-2zM27 20h1v1h-1zM29 20h1v1h-1zM13 21h2v1h-2zM22 21h1v1h-1zM26 21h1v1h-1zM29 21h1v1h-1zM14 22h1v1h-1zM20 22h3v1h-3zM12 23h1v1h-1zM21 23h1v1h-1zM26 23h2v1h-2zM13 24h1v1h-1zM16 24h1v1h-1zM12 25h2v1h-2zM15 25h1v1h-1zM17 25h1v1h-1zM21 25h1v1h-1zM27 25h2v1h-2zM10 26h1v1h-1zM12 26h2v1h-2zM16 26h2v1h-2zM19 26h1v1h-1zM27 26h1v1h-1zM20 27h1v1h-1zM23 27h1v1h-1zM25 27h1v1h-1zM28 27h1v1h-1zM12 28h1v1h-1zM15 28h1v1h-1zM22 28h1v1h-1zM24 28h1v1h-1zM28 28h1v1h-1zM8 29h1v1h-1zM10 29h3v1h-3zM15 29h1v1h-1zM24 29h1v1h-1zM26 29h3v1h-3zM15 30h1v1h-1zM23 30h1v1h-1zM26 30h2v1h-2zM7 31h1v1h-1zM12 32h2v1h-2zM20 32h3v1h-3zM26 32h2v1h-2zM13 33h2v1h-2zM16 33h1v1h-1zM20 33h1v1h-1zM3 34h1v1h-1zM6 34h1v1h-1zM8 34h3v1h-3zM15 34h3v1h-3zM26 34h1v1h-1zM4 35h2v1h-2zM8 35h2v1h-2zM16 35h1v1h-1zM26 35h2v1h-2zM7 36h2v1h-2zM16 36h1v1h-1zM22 36h1v1h-1zM8 37h1v1h-1zM10 37h1v1h-1zM27 37h3v1h-3zM11 38h1v1h-1zM19 38h1v1h-1zM28 38h3v1h-3zM16 39h2v1h-2zM19 39h1v1h-1z"/><path fill="#011B2E" d="M27 2h1v1h-1zM17 3h1v1h-1zM21 3h1v1h-1zM30 3h1v1h-1zM23 4h2v1h-2zM27 4h1v1h-1zM29 4h1v1h-1zM32 4h1v1h-1zM15 5h1v1h-1zM17 5h1v1h-1zM23 5h1v1h-1zM25 5h1v1h-1zM28 5h1v1h-1zM19 6h1v1h-1zM18 7h3v1h-3zM26 7h1v1h-1zM30 7h1v1h-1zM19 8h1v1h-1zM21 8h2v1h-2zM24 8h1v1h-1zM27 8h1v1h-1zM30 8h1v1h-1zM22 9h1v1h-1zM27 9h1v1h-1zM23 10h1v1h-1zM19 11h1v1h-1zM23 11h3v1h-3zM29 11h2v1h-2zM19 12h1v1h-1zM29 12h3v1h-3zM17 13h2v1h-2zM29 13h2v1h-2zM17 14h3v1h-3zM22 14h1v1h-1zM17 15h2v1h-2zM23 15h1v1h-1zM25 16h2v1h-2zM18 17h2v1h-2zM26 17h1v1h-1zM19 18h1v1h-1zM15 19h3v1h-3zM19 19h1v1h-1zM15 20h1v1h-1zM17 20h1v1h-1zM20 20h1v1h-1zM22 20h2v1h-2zM28 20h1v1h-1zM15 21h1v1h-1zM18 21h1v1h-1zM20 21h2v1h-2zM25 21h1v1h-1zM27 21h2v1h-2zM15 22h1v1h-1zM19 22h1v1h-1zM28 22h2v1h-2zM13 23h3v1h-3zM20 23h1v1h-1zM22 23h2v1h-2zM25 23h1v1h-1zM29 23h1v1h-1zM12 24h1v1h-1zM14 24h1v1h-1zM19 24h4v1h-4zM27 24h2v1h-2zM11 25h1v1h-1zM19 25h1v1h-1zM22 25h4v1h-4zM29 25h1v1h-1zM11 26h1v1h-1zM15 26h1v1h-1zM22 26h2v1h-2zM15 27h2v1h-2zM18 27h2v1h-2zM21 27h1v1h-1zM24 27h1v1h-1zM10 28h1v1h-1zM16 28h1v1h-1zM25 29h1v1h-1zM8 30h1v1h-1zM10 30h1v1h-1zM12 30h1v1h-1zM25 30h1v1h-1zM28 30h1v1h-1zM16 31h1v1h-1zM23 31h1v1h-1zM25 31h4v1h-4zM2 32h1v1h-1zM7 32h1v1h-1zM16 32h2v1h-2zM28 32h1v1h-1zM2 33h1v1h-1zM7 33h3v1h-3zM19 33h1v1h-1zM23 33h1v1h-1zM28 33h1v1h-1zM2 34h1v1h-1zM5 34h1v1h-1zM13 34h1v1h-1zM21 34h1v1h-1zM27 34h2v1h-2zM14 35h1v1h-1zM17 35h2v1h-2zM15 36h1v1h-1zM23 36h1v1h-1zM29 36h1v1h-1zM9 37h1v1h-1zM16 37h1v1h-1zM19 37h1v1h-1zM21 37h3v1h-3zM8 38h1v1h-1zM18 38h1v1h-1zM18 39h1v1h-1zM18 40h1v1h-1z"/><path fill="#12254D" d="M18 3h1v1h-1zM26 3h2v1h-2zM17 4h1v1h-1zM26 4h1v1h-1zM16 5h1v1h-1zM18 5h1v1h-1zM18 6h1v1h-1zM21 7h1v1h-1zM24 7h1v1h-1zM27 7h1v1h-1zM20 8h1v1h-1zM26 8h1v1h-1zM19 9h1v1h-1zM24 9h1v1h-1zM26 9h1v1h-1zM28 9h1v1h-1zM19 10h1v1h-1zM24 10h4v1h-4zM30 10h1v1h-1zM21 11h2v1h-2zM26 11h2v1h-2zM23 12h3v1h-3zM23 14h1v1h-1zM17 17h1v1h-1zM17 18h1v1h-1zM16 20h1v1h-1zM18 20h1v1h-1zM19 21h1v1h-1zM23 21h2v1h-2zM13 22h1v1h-1zM16 22h1v1h-1zM18 22h1v1h-1zM25 22h1v1h-1zM16 23h1v1h-1zM18 23h2v1h-2zM28 23h1v1h-1zM15 24h1v1h-1zM17 24h2v1h-2zM25 24h2v1h-2zM18 25h1v1h-1zM18 26h1v1h-1zM10 27h2v1h-2zM17 27h1v1h-1zM22 27h1v1h-1zM9 28h1v1h-1zM11 28h1v1h-1zM17 28h2v1h-2zM9 29h1v1h-1zM16 29h1v1h-1zM18 29h1v1h-1zM9 30h1v1h-1zM11 30h1v1h-1zM16 30h1v1h-1zM18 30h1v1h-1zM8 31h1v1h-1zM10 31h1v1h-1zM18 31h1v1h-1zM8 32h2v1h-2zM11 32h1v1h-1zM10 33h2v1h-2zM17 33h1v1h-1zM27 33h1v1h-1zM14 34h1v1h-1zM15 35h1v1h-1zM28 35h1v1h-1zM17 36h2v1h-2zM27 36h2v1h-2zM7 37h1v1h-1zM11 37h1v1h-1zM18 37h1v1h-1zM9 38h1v1h-1zM16 38h2v1h-2z"/><path fill="#2D495B" d="M16 4h1v1h-1zM21 4h2v1h-2zM20 5h3v1h-3zM29 5h1v1h-1zM31 5h1v1h-1zM16 6h1v1h-1zM20 6h4v1h-4zM22 7h1v1h-1zM28 7h2v1h-2zM23 8h1v1h-1zM25 8h1v1h-1zM20 9h1v1h-1zM25 9h1v1h-1zM30 9h1v1h-1zM20 10h3v1h-3zM24 15h2v1h-2zM17 16h1v1h-1zM18 18h1v1h-1zM18 19h1v1h-1zM19 20h1v1h-1zM16 21h2v1h-2zM17 22h1v1h-1zM23 22h2v1h-2zM17 23h1v1h-1zM24 23h1v1h-1zM23 24h2v1h-2zM29 26h1v1h-1zM17 29h1v1h-1zM17 30h1v1h-1zM9 31h1v1h-1zM11 31h2v1h-2zM17 31h1v1h-1zM10 32h1v1h-1zM18 32h1v1h-1zM18 33h1v1h-1zM18 34h1v1h-1zM22 34h1v1h-1zM23 35h1v1h-1zM14 37h1v1h-1zM17 37h1v1h-1zM30 37h1v1h-1zM10 38h1v1h-1zM31 38h1v1h-1zM17 40h1v1h-1zM19 40h1v1h-1z"/><path fill="#FBF4EB" d="M23 7h1v1h-1zM28 8h2v1h-2zM29 9h1v1h-1zM24 13h1v1h-1zM25 14h1v1h-1z"/><path fill="#F8D8BC" d="M21 13h2v1h-2zM27 16h2v1h-2z"/><path fill="#6A224E" d="M26 13h1v1h-1z"/><path fill="#3A2439" d="M27 13h1v1h-1z"/><path fill="#F1457E" d="M28 13h1v1h-1zM27 14h1v1h-1zM28 15h1v1h-1z"/><path fill="#F48FA4" d="M26 14h1v1h-1zM29 14h1v1h-1zM26 15h2v1h-2zM29 15h2v1h-2zM29 16h1v1h-1z"/><path fill="#652232" d="M28 14h1v1h-1z"/></svg>
