<svg xmlns="http://www.w3.org/2000/svg" viewBox="0 0 12 13" width="48" height="52" shape-rendering="crispEdges"><title>Nico</title><path fill="#000B14" d="M3 1h5v1h-5zM2 2h1v1h-1zM8 2h2v1h-2zM1 3h1v1h-1zM5 3h1v1h-1zM10 3h1v1h-1zM2 4h1v1h-1zM9 4h1v1h-1zM1 5h1v1h-1zM10 5h1v1h-1zM1 6h1v1h-1zM9 6h1v1h-1zM2 7h1v1h-1zM9 7h1v1h-1zM2 8h1v1h-1zM9 8h1v1h-1zM1 9h1v1h-1zM7 9h1v1h-1zM9 9h1v1h-1zM2 10h2v1h-2zM7 10h2v1h-2zM4 11h3v1h-3z"/><path fill="#00111D" d="M3 2h1v1h-1zM2 3h1v1h-1zM6 3h1v1h-1zM5 5h2v1h-2zM9 5h1v1h-1zM8 6h1v1h-1zM4 7h5v1h-5zM3 8h2v1h-2zM7 8h2v1h-2zM2 9h1v1h-1zM4 9h3v1h-3zM4 10h3v1h-3z"/><path fill="#2D495B" d="M4 2h1v1h-1zM7 2h1v1h-1zM3 3h2v1h-2z"/><path fill="#12254D" d="M5 2h1v1h-1zM7 3h3v1h-3zM7 4h1v1h-1zM2 5h3v1h-3zM7 5h2v1h-2zM4 6h1v1h-1zM3 7h1v1h-1zM3 9h1v1h-1zM8 9h1v1h-1z"/><path fill="#011B2E" d="M6 2h1v1h-1zM3 4h2v1h-2zM6 4h1v1h-1zM8 4h1v1h-1zM2 6h2v1h-2zM5 6h3v1h-3z"/><path fill="#576974" d="M5 4h1v1h-1z"/><path fill="#F48FA4" d="M5 8h2v1h-2z"/></svg>
